<svg xmlns="http://www.w3.org/2000/svg" data-name="Layer 2" viewBox="0 0 64 64" id="css"><path d="M57 35a1 1 0 0 0-1-1h-3V15.94a1 1 0 0 0 0-.21v-.07a1 1 0 0 0-.18-.29l-11-12a1 1 0 0 0-.29-.21h-.06a1 1 0 0 0-.36-.16H14.42A3.42 3.42 0 0 0 11 6.42V34H8a1 1 0 0 0-1 1v14.07a1.08 1.08 0 0 0 .34.68v.05L11 52.5v5.08A3.42 3.42 0 0 0 14.42 61h35.16A3.42 3.42 0 0 0 53 57.58V52.5l3.6-2.7v-.05a1.08 1.08 0 0 0 .34-.68s0 0 0-.07Zm-36-1V5h19v11a1 1 0 0 0 1 1h10v17ZM42 6.57 49.73 15H42Zm-29-.15A1.42 1.42 0 0 1 14.42 5H19v29h-6ZM9 36h46v12H9Zm4 21.58V50h6v9h-4.58A1.42 1.42 0 0 1 13 57.58ZM49.58 59H21v-9h30v7.58A1.42 1.42 0 0 1 49.58 59Z"></path><path d="M19.56 46.06a.91.91 0 0 1-.63-.23.83.83 0 0 1-.26-.66.85.85 0 0 1 .25-.62.83.83 0 0 1 .62-.26.87.87 0 0 1 .63.25.9.9 0 0 1 0 1.27.88.88 0 0 1-.61.25zm10.13-2.85a2.29 2.29 0 0 1-.2.89 3.2 3.2 0 0 1-.64.94 3.24 3.24 0 0 1-1.11.75 4 4 0 0 1-1.57.29 5.49 5.49 0 0 1-1.24-.13 3.47 3.47 0 0 1-1-.4 3.41 3.41 0 0 1-.83-.72 4.27 4.27 0 0 1-.58-.91 4.72 4.72 0 0 1-.36-1.07 5.83 5.83 0 0 1-.16-1.21 5.35 5.35 0 0 1 .3-1.86 4 4 0 0 1 .86-1.4 3.77 3.77 0 0 1 1.32-.89 4.27 4.27 0 0 1 1.61-.3 4 4 0 0 1 1.91.41 3.36 3.36 0 0 1 1.25 1 2 2 0 0 1 .43 1.16.75.75 0 0 1-.21.53.67.67 0 0 1-.51.23.7.7 0 0 1-.5-.16 2.19 2.19 0 0 1-.37-.54 2.62 2.62 0 0 0-.8-1 2 2 0 0 0-1.13-.32 2.05 2.05 0 0 0-1.71.81 3.69 3.69 0 0 0-.64 2.31 4.3 4.3 0 0 0 .28 1.67 2.1 2.1 0 0 0 .8 1 2.2 2.2 0 0 0 1.21.33 2.12 2.12 0 0 0 1.27-.37 2.25 2.25 0 0 0 .78-1.09 1.85 1.85 0 0 1 .28-.55.62.62 0 0 1 .53-.21.74.74 0 0 1 .53.22.72.72 0 0 1 .2.59zm8.09.13a2.52 2.52 0 0 1-.4 1.4 2.67 2.67 0 0 1-1.17 1 4.4 4.4 0 0 1-1.83.35 4.13 4.13 0 0 1-2.1-.48 2.79 2.79 0 0 1-1-.92 2.09 2.09 0 0 1-.28-1.15.76.76 0 0 1 .78-.77.66.66 0 0 1 .47.18 1.38 1.38 0 0 1 .33.52 3.48 3.48 0 0 0 .35.69 1.44 1.44 0 0 0 .54.45 2 2 0 0 0 .91.18 2 2 0 0 0 1.26-.36 1.08 1.08 0 0 0 .48-.9 1 1 0 0 0-.26-.69 1.68 1.68 0 0 0-.67-.41q-.41-.14-1.1-.3a8.1 8.1 0 0 1-1.55-.51 2.5 2.5 0 0 1-1-.79 2.05 2.05 0 0 1-.37-1.25 2.14 2.14 0 0 1 .39-1.26 2.44 2.44 0 0 1 1.12-.85 4.58 4.58 0 0 1 1.72-.3 4.26 4.26 0 0 1 1.37.2 2.89 2.89 0 0 1 1 .52 2.18 2.18 0 0 1 .56.68 1.57 1.57 0 0 1 .18.7.82.82 0 0 1-.22.56.7.7 0 0 1-.55.25.63.63 0 0 1-.45-.15 2 2 0 0 1-.34-.49 2.22 2.22 0 0 0-.56-.76 1.65 1.65 0 0 0-1.05-.27 1.83 1.83 0 0 0-1.09.3.86.86 0 0 0-.41.71.72.72 0 0 0 .14.45 1.18 1.18 0 0 0 .39.32 2.61 2.61 0 0 0 .5.21l.83.22a13.06 13.06 0 0 1 1.2.38 4 4 0 0 1 1 .5 2 2 0 0 1 .64.74 2.37 2.37 0 0 1 .24 1.1zm8 0a2.52 2.52 0 0 1-.4 1.4 2.67 2.67 0 0 1-1.17 1 4.4 4.4 0 0 1-1.83.35 4.13 4.13 0 0 1-2.1-.48 2.79 2.79 0 0 1-1-.92 2.09 2.09 0 0 1-.28-1.15.76.76 0 0 1 .78-.77.66.66 0 0 1 .47.18 1.38 1.38 0 0 1 .33.52 3.48 3.48 0 0 0 .35.69 1.44 1.44 0 0 0 .54.45 2 2 0 0 0 .91.18 2 2 0 0 0 1.26-.36 1.08 1.08 0 0 0 .48-.9 1 1 0 0 0-.26-.69 1.68 1.68 0 0 0-.67-.41q-.41-.14-1.1-.3a8.1 8.1 0 0 1-1.55-.51 2.5 2.5 0 0 1-1-.79 2.05 2.05 0 0 1-.37-1.25 2.14 2.14 0 0 1 .39-1.26 2.44 2.44 0 0 1 1.12-.85 4.58 4.58 0 0 1 1.72-.3 4.26 4.26 0 0 1 1.37.2 2.89 2.89 0 0 1 1 .52 2.18 2.18 0 0 1 .56.68 1.57 1.57 0 0 1 .18.7.82.82 0 0 1-.22.56.7.7 0 0 1-.55.25.63.63 0 0 1-.45-.15 2 2 0 0 1-.34-.49 2.22 2.22 0 0 0-.56-.76 1.65 1.65 0 0 0-1.05-.27 1.83 1.83 0 0 0-1.09.3.86.86 0 0 0-.41.71.72.72 0 0 0 .14.45 1.18 1.18 0 0 0 .39.32 2.61 2.61 0 0 0 .5.21l.83.22a13.06 13.06 0 0 1 1.32.38 4 4 0 0 1 1 .5 2 2 0 0 1 .64.74 2.37 2.37 0 0 1 .12 1.1z"></path></svg>
