<svg xmlns="http://www.w3.org/2000/svg" viewBox="0 0 80 80" id="html-file"><path d="M66 75V60h5.5V29H66v-6.806l-.559-.58c-2.386-2.482-5.852-6.207-8.909-9.494-2.455-2.64-4.707-5.06-6.087-6.503L49.854 5H14v24H8.5v31H14v15h52zm-4-4H18V60h44v11zm-2.654-50.002h-8.348v-8.953c.819.878 1.696 1.821 2.606 2.799a1721.04 1721.04 0 0 0 5.742 6.154zM18 9h28.998v15.998H62V29H18V9zm-5.5 24h55v23h-55V33z"></path><path d="M51.125 37.63a1.997 1.997 0 0 0-2.249.883l-2.204 3.611-2.407-3.666a1.999 1.999 0 0 0-3.672 1.097v9.319a2 2 0 0 0 4 0v-2.63l.47.715c.375.573 1.002.935 1.705.902a2 2 0 0 0 1.673-.957l.142-.233v2.203a2 2 0 0 0 4 0v-9.319a2 2 0 0 0-1.458-1.925zM63 46.562h-4.213v-7.436a2 2 0 0 0-4 0v9.436a2 2 0 0 0 2 2H63a2 2 0 0 0 0-4zm-39.371-9.235a2 2 0 0 0-2 2V42H19v-2.673a2 2 0 0 0-4 0v9.346a2 2 0 0 0 4 0V46h2.629v2.673a2 2 0 0 0 4 0v-9.346a2 2 0 0 0-2-2zm13.745.68h-8.3a2 2 0 0 0 0 4h2.147l-.007 6.566a2 2 0 0 0 1.998 2.002h.002a2 2 0 0 0 2-1.998l.007-6.57h2.153a2 2 0 0 0 0-4z"></path></svg>
